<svg width="24" height="24" viewBox="0 0 24 24" fill="none" xmlns="http://www.w3.org/2000/svg">
<path d="M20.6437 12.3937L13.8937 19.1437C13.842 19.1954 13.7807 19.2364 13.7131 19.2644C13.6455 19.2924 13.5731 19.3068 13.5 19.3068C13.4269 19.3068 13.3545 19.2924 13.2869 19.2644C13.2193 19.2364 13.158 19.1954 13.1063 19.1437C13.0545 19.092 13.0135 19.0306 12.9855 18.9631C12.9576 18.8955 12.9432 18.8231 12.9432 18.75C12.9432 18.6768 12.9576 18.6044 12.9855 18.5369C13.0135 18.4693 13.0545 18.4079 13.1063 18.3562L18.8906 12.5625H3.75C3.60082 12.5625 3.45774 12.5032 3.35225 12.3977C3.24676 12.2922 3.1875 12.1491 3.1875 12C3.1875 11.8508 3.24676 11.7077 3.35225 11.6022C3.45774 11.4967 3.60082 11.4375 3.75 11.4375H18.8906L13.1063 5.64371C13.0018 5.53928 12.9432 5.39765 12.9432 5.24996C12.9432 5.10228 13.0018 4.96064 13.1063 4.85621C13.2107 4.75178 13.3523 4.69312 13.5 4.69312C13.6477 4.69312 13.7893 4.75178 13.8937 4.85621L20.6437 11.6062C20.6971 11.657 20.7395 11.7181 20.7685 11.7858C20.7975 11.8535 20.8125 11.9263 20.8125 12C20.8125 12.0736 20.7975 12.1465 20.7685 12.2142C20.7395 12.2818 20.6971 12.3429 20.6437 12.3937Z" fill="#EFE7D2"/>
</svg>
