<svg width="24" height="24" viewBox="0 0 24 24" fill="none" xmlns="http://www.w3.org/2000/svg">
<path d="M23.0157 6.53442C22.9733 6.43234 22.9018 6.345 22.8101 6.28331C22.7184 6.22162 22.6105 6.18831 22.5 6.18754H19.5375C19.1714 5.515 18.6327 4.95209 17.977 4.55666C17.3212 4.16122 16.572 3.94753 15.8063 3.93754C14.6558 3.93254 13.5502 4.3835 12.7314 5.19172C11.9127 5.99994 11.4474 7.09961 11.4375 8.25004V9.06567C7.46252 8.11879 4.18127 4.88442 4.14377 4.85629C4.0715 4.78494 3.98126 4.73449 3.88262 4.7103C3.78399 4.6861 3.68064 4.68906 3.58355 4.71886C3.48646 4.74866 3.39925 4.80419 3.33118 4.87955C3.2631 4.95492 3.2167 5.04731 3.1969 5.14692C2.38127 9.60942 3.7219 12.5907 4.98752 14.3063C5.65878 15.2249 6.48335 16.0209 7.42502 16.6594C5.9719 18.4219 3.58127 19.3407 3.55315 19.35C3.47328 19.3795 3.40127 19.4269 3.34273 19.4887C3.28419 19.5505 3.2407 19.6249 3.21565 19.7063C3.18905 19.7857 3.18113 19.8701 3.19251 19.953C3.20389 20.036 3.23427 20.1152 3.28127 20.1844C3.37502 20.325 4.29377 21.5625 7.50002 21.5625C14.0344 21.5625 19.5 16.5094 20.025 10.0219L22.8938 7.14379C22.9751 7.0676 23.0306 6.9679 23.0524 6.85864C23.0743 6.74938 23.0614 6.63602 23.0157 6.53442ZM19.0781 9.37504C18.9806 9.47233 18.9237 9.603 18.9188 9.74067C18.5344 15.7407 13.5188 20.4375 7.50002 20.4375C6.1969 20.4375 5.36252 20.2125 4.86565 19.9875C5.92502 19.4532 7.6594 18.4032 8.71877 16.8094C8.76098 16.7433 8.78938 16.6694 8.80227 16.5921C8.81516 16.5147 8.81227 16.4356 8.79377 16.3594C8.77379 16.2815 8.73757 16.2086 8.68749 16.1456C8.63741 16.0826 8.57459 16.0309 8.50315 15.9938C8.4844 15.9938 7.07815 15.2625 5.8594 13.5938C4.40627 11.6063 3.8344 9.17817 4.15315 6.37504C5.5219 7.53754 8.47502 9.73129 11.9063 10.3032C11.987 10.3185 12.0702 10.3157 12.1497 10.2948C12.2292 10.274 12.3031 10.2357 12.366 10.1827C12.4288 10.1297 12.4791 10.0634 12.5131 9.98855C12.5471 9.91371 12.564 9.83223 12.5625 9.75004V8.25004C12.57 7.40046 12.9133 6.58835 13.5176 5.9911C14.1218 5.39386 14.9379 5.06003 15.7875 5.06254C16.4014 5.0714 16.9999 5.25634 17.5117 5.59537C18.0236 5.93439 18.4274 6.41326 18.675 6.97504C18.7178 7.0761 18.7897 7.16215 18.8815 7.22225C18.9733 7.28235 19.0809 7.31378 19.1907 7.31254H21.1407L19.0781 9.37504Z" fill="#EFE7D2"/>
</svg>
