<?xml version="1.0" standalone="no"?>
<!DOCTYPE svg PUBLIC "-//W3C//DTD SVG 20010904//EN"
 "http://www.w3.org/TR/2001/REC-SVG-20010904/DTD/svg10.dtd">
<svg version="1.0" xmlns="http://www.w3.org/2000/svg"
 width="283.000000pt" height="283.000000pt" viewBox="0 0 283.000000 283.000000"
 preserveAspectRatio="xMidYMid meet">

<g transform="translate(0.000000,283.000000) scale(0.100000,-0.100000)"
fill="#000000" stroke="none">
<path d="M0 1415 l0 -1415 1415 0 1415 0 0 174 0 173 -137 6 c-310 11 -543
120 -803 374 l-126 122 -59 -29 c-114 -54 -223 -75 -390 -75 -138 1 -156 3
-230 28 -131 46 -220 102 -320 202 -106 106 -169 206 -217 345 -31 91 -33 101
-33 245 0 163 12 226 66 357 96 233 311 418 564 484 107 28 334 26 438 -4 291
-83 512 -314 593 -617 25 -95 25 -301 0 -400 -36 -141 -133 -311 -230 -404
l-36 -34 47 -51 c135 -146 363 -285 588 -360 82 -27 218 -56 261 -56 l24 0 0
1175 0 1175 -1415 0 -1415 0 0 -1415z"/>
<path d="M1215 2333 c-233 -49 -430 -249 -511 -518 -33 -111 -38 -278 -11
-388 86 -348 363 -599 662 -598 315 1 575 221 655 555 94 391 -160 845 -527
940 -56 15 -217 20 -268 9z"/>
</g>
</svg>
